# xmcd
#
# Track frame offsets: 
#        150
#        12957
#        28717
#        43772
#        56187
#        86287
#        103137
#        114185
#        181688
#        199733
#        223236
#        237974
#        249209
#        263149
#        297469
#
# Disc length: 4494 seconds
#
# Revision: 0
# Processed by: cddbd v1.5.2PL0 Copyright (c) Steve Scherf et al.
# Submitted via: ExactAudioCopy v0.99pb5
#
DISCID=d0118c0f
DTITLE=Jimi Hendrix - Little Wing [CD1]
DYEAR=2009
DGENRE=Acid Rock
TTITLE0=01. Purple Haze
TTITLE1=02. Hey Joe
TTITLE2=03. The Wind Cries Mary
TTITLE3=04. Fire
TTITLE4=05. Third Stone from the Sun
TTITLE5=06. Red House
TTITLE6=07. Little Wing
TTITLE7=08. Voodoo Chile Blues
TTITLE8=09. All Along the Watchtower
TTITLE9=10. Voodoo Child (Slight Return)
TTITLE10=11. Day Tripper
TTITLE11=12. Killing Floor
TTITLE12=13. Hear My Train a-Comin' (12-String Acoustic)
TTITLE13=14. Born Under a Bad Sign
TTITLE14=15. Voodoo Chile Blues (Outtake)
EXTD=
EXTT0=
EXTT1=
EXTT2=
EXTT3=
EXTT4=
EXTT5=
EXTT6=
EXTT7=
EXTT8=
EXTT9=
EXTT10=
EXTT11=
EXTT12=
EXTT13=
EXTT14=
PLAYORDER=
